<svg width="227" height="35" viewBox="0 0 227 35" fill="none" xmlns="http://www.w3.org/2000/svg">
<path d="M0.6 34V2.28L14 2.08C16.48 2.02667 18.3467 2.58667 19.6 3.76C20.8533 4.90666 21.48 6.61333 21.48 8.88V15.36C21.48 17.4933 20.8533 19.1867 19.6 20.44C18.3467 21.6667 16.48 22.28 14 22.28H5.64V34H0.6ZM15.68 6.48H5.64V17.92H15.68C16.1067 17.92 16.32 17.7067 16.32 17.28V7.12C16.32 6.69333 16.1067 6.48 15.68 6.48ZM25.0994 15.24C25.0994 13.0267 25.6327 11.4667 26.6994 10.56C27.766 9.62666 29.5127 9.16 31.9394 9.16H36.2994C38.7527 9.16 40.5127 9.62666 41.5794 10.56C42.646 11.4667 43.1794 13.0267 43.1794 15.24V28.28C43.1794 30.4933 42.646 32.0667 41.5794 33C40.5127 33.9067 38.7527 34.36 36.2994 34.36H31.9394C29.5127 34.36 27.766 33.9067 26.6994 33C25.6327 32.0667 25.0994 30.4933 25.0994 28.28V15.24ZM30.5394 13.2C30.166 13.2 29.9794 13.3867 29.9794 13.76V29.76C29.9794 30.1333 30.166 30.32 30.5394 30.32H37.7794C38.126 30.32 38.2994 30.1333 38.2994 29.76V13.76C38.2994 13.3867 38.126 13.2 37.7794 13.2H30.5394ZM47.4775 34.12L47.4375 30.2H58.2375C58.6108 30.2 58.7975 30.0267 58.7975 29.68V24.04C58.7975 23.6667 58.6108 23.48 58.2375 23.48H53.3975C51.1042 23.48 49.4642 23.0667 48.4775 22.24C47.5175 21.3867 47.0375 19.8933 47.0375 17.76V15.12C47.0375 12.9067 47.5442 11.36 48.5575 10.48C49.5975 9.57333 51.2508 9.13333 53.5175 9.16H62.3175V13.24L52.4775 13.2C52.1308 13.2 51.9575 13.3867 51.9575 13.76V19.12C51.9575 19.4933 52.1308 19.68 52.4775 19.68H57.2775C59.5708 19.68 61.1975 20.0933 62.1575 20.92C63.1175 21.72 63.5975 23.2 63.5975 25.36V28.72C63.5975 30.7467 63.1308 32.16 62.1975 32.96C61.2908 33.7333 59.8242 34.12 57.7975 34.12H47.4775ZM67.8944 5.16V0.679997H72.7744V5.16H67.8944ZM67.8944 34V9.52H72.7744V34H67.8944ZM90.5053 13.32H84.7853V29.4C84.7853 29.7467 84.9586 29.92 85.3053 29.92H90.5053V34H86.7853C84.3853 34 82.6386 33.5333 81.5453 32.6C80.4786 31.6667 79.9453 30.1067 79.9453 27.92V13.32H77.0653V9.52H79.9453V3.28H84.7853V9.52H90.5053V13.32ZM93.91 5.16V0.679997H98.79V5.16H93.91ZM93.91 34V9.52H98.79V34H93.91ZM112.761 34.24L107.401 34L102.201 9.52H107.001L111.321 30.44H113.441C113.708 30.44 113.894 30.2533 114.001 29.88L118.161 9.52H122.841L118.521 29.04C118.254 30.3467 117.921 31.4 117.521 32.2C117.148 33 116.601 33.56 115.881 33.88C115.161 34.2 114.121 34.32 112.761 34.24ZM132.176 34.28C129.749 34.28 127.989 33.8133 126.896 32.88C125.829 31.9467 125.296 30.3733 125.296 28.16V15C125.296 12.7867 125.762 11.2667 126.696 10.44C127.629 9.58666 129.229 9.16 131.496 9.16H136.416C138.709 9.16 140.336 9.58666 141.296 10.44C142.282 11.2667 142.776 12.7867 142.776 15V24.56H130.176V29.68C130.176 30.0267 130.349 30.2 130.696 30.2H142.136V34.28H132.176ZM130.696 13.08C130.349 13.08 130.176 13.2667 130.176 13.64V21.04H137.936V13.64C137.936 13.2667 137.762 13.08 137.416 13.08H130.696ZM174.429 34H157.589V2.28H162.629V29.64H174.429V34ZM177.816 5.16V0.679997H182.696V5.16H177.816ZM177.816 34V9.52H182.696V34H177.816ZM196.667 34.24L191.307 34L186.107 9.52H190.907L195.227 30.44H197.347C197.614 30.44 197.801 30.2533 197.907 29.88L202.067 9.52H206.747L202.427 29.04C202.161 30.3467 201.827 31.4 201.427 32.2C201.054 33 200.507 33.56 199.787 33.88C199.067 34.2 198.027 34.32 196.667 34.24ZM216.082 34.28C213.655 34.28 211.895 33.8133 210.802 32.88C209.735 31.9467 209.202 30.3733 209.202 28.16V15C209.202 12.7867 209.669 11.2667 210.602 10.44C211.535 9.58666 213.135 9.16 215.402 9.16H220.322C222.615 9.16 224.242 9.58666 225.202 10.44C226.189 11.2667 226.682 12.7867 226.682 15V24.56H214.082V29.68C214.082 30.0267 214.255 30.2 214.602 30.2H226.042V34.28H216.082ZM214.602 13.08C214.255 13.08 214.082 13.2667 214.082 13.64V21.04H221.842V13.64C221.842 13.2667 221.669 13.08 221.322 13.08H214.602Z" fill="#0070A8"/>
</svg>
